<?xml version="1.0" encoding="UTF-8"?>
<svg width="750" height="200" version="1.1" viewBox="0 0 750 200" xmlns="http://www.w3.org/2000/svg">
 <g fill="#f5893a">
  <path d="m28.72 15.414-25.17 123.17-2.67-18.67s-6.5-45.83 15.83-94.17c0.01 0.01 2.01-5.66 12.01-10.33z"/>
  <path d="m193.22 53.254s-12.83 2.17-21.33 14.67c0 0-7.33 12.83-10.83 25 0 0-21.33 58.5-40.5 72.33 0 0-5 5-11.83 4.33 0 0-1.83 0.33-1.33-4.5 0 0-0.15-2.94 2.23-6.16l23.06-37.2s5.37-8.98 0.21-12.31c0 0-12.17-10.83-30-5.83 0 0-6.17 0.5-9 14.83 0 0-9.17 33.62-28.67 51.23 0 0-8.5 11.61-19.83-3.56 0 0-13-13-1.83-49l30-71.5 16.5-38.67s1.83-4.33 1.17-6.83c0 0 38.17-2.17 78.33 15.5 0 0 12.76 3.33 17.5 20.67z"/>
  <path d="m200.39 89.084s-31 77.67-71.17 98.5c0 0-25.17 15.33-44.17 1.67 0 0-9.5 7.67-16.33 7.67 0 0 36.67 9 79.17-4.17 0 0 14.13-4.77 18.75-6.67 4.34-1.78 13.98-5.52 19.56-18.38 0 0 9.86-21.49 14.19-78.62z"/>
 </g>
 <g fill="#5d5d5d">
  <path d="m274.95 190.71h-3.552v-35.52h3.552z"/>
  <path d="m308.26 190.71h-3.36v-4.608h-0.096q-1.68 2.496-4.464 3.888-2.736 1.344-5.76 1.344-5.952 0-10.032-3.936-4.08-3.984-4.08-9.888 0-5.856 4.128-9.792t9.984-3.936q3.072 0 5.808 1.344t4.416 3.84h0.096v-13.776h3.36zm-6.24-5.52q3.072-3.168 3.072-7.584t-3.072-7.584q-3.024-3.216-7.44-3.216-4.656 0-7.728 3.12-3.024 3.072-3.024 7.728 0 4.608 3.072 7.632t7.68 3.024q4.416 0 7.44-3.12z"/>
  <path d="m340.71 177.85q0 0.192-0.048 0.48 0 0.288 0 0.48h-23.904q0.192 3.84 3.216 6.672 3.072 2.832 6.96 2.832 3.12 0 5.712-1.68 2.64-1.68 3.696-4.512h3.552q-1.44 4.128-4.992 6.672t-7.92 2.544q-5.664 0-9.696-4.032-3.984-4.032-3.984-9.696t3.984-9.744q4.032-4.08 9.648-4.08 5.712 0 9.744 4.176t4.032 9.888zm-3.456-2.064q-0.672-3.888-3.504-6.432t-6.768-2.544q-3.888 0-6.768 2.544-2.832 2.544-3.456 6.432z"/>
  <path d="m368.88 190.71h-3.36v-14.448q0-4.848-2.496-7.2-2.4-2.256-5.712-2.256t-5.712 2.256q-2.448 2.304-2.448 6.96v14.688h-3.36v-26.256h3.36v3.36h0.096q1.248-1.968 3.408-2.976 2.208-1.056 4.656-1.056 5.52 0 8.544 3.456 3.024 3.408 3.024 9.024z"/>
  <path d="m387.8 167.48h-6.288v23.232h-3.36v-23.232h-5.52v-3.024h5.52v-9.264h3.36v9.264h6.288z"/>
  <path d="m394.71 161.24h-3.36v-6.048h3.36zm0 29.472h-3.36v-26.256h3.36z"/>
  <path d="m413.67 167.48h-6.288v23.232h-3.36v-23.232h-5.52v-3.024h5.52v-9.264h3.36v9.264h6.288z"/>
  <path d="m439.2 164.45-15.216 35.472h-3.504l4.56-10.08-10.224-25.392h3.552l8.352 20.928 8.928-20.928z"/>
  <path d="m468.2 167.48h-6.72v23.232h-3.36v-23.232h-4.08v-3.024h4.08q0.096-2.64 0.432-3.936 1.584-5.856 9.648-5.952v3.12q-3.6 0-5.184 1.536-1.536 1.536-1.536 5.04v0.192h6.72z"/>
  <path d="m497.67 177.56q0 5.664-4.08 9.744-4.032 4.032-9.696 4.032-5.568 0-9.648-4.032-4.032-4.032-4.032-9.552 0-5.712 3.984-9.84t9.696-4.128q5.616 0 9.696 4.08t4.08 9.696zm-3.36-0.144q0-4.32-3.072-7.44-3.024-3.168-7.296-3.168-4.368 0-7.392 3.264-2.976 3.216-2.976 7.632 0 4.32 3.024 7.488 3.024 3.12 7.344 3.12 4.464 0 7.392-3.168 2.976-3.216 2.976-7.728z"/>
  <path d="m513.6 167.33q-3.504 0.288-5.52 2.4-1.968 2.112-1.968 5.616v15.36h-3.36v-26.256h3.36v3.792h0.096q1.008-2.352 2.784-3.312t4.608-1.152z"/>
  <path d="m556.61 177.85q0 0.192-0.048 0.48 0 0.288 0 0.48h-23.904q0.192 3.84 3.216 6.672 3.072 2.832 6.96 2.832 3.12 0 5.712-1.68 2.64-1.68 3.696-4.512h3.552q-1.44 4.128-4.992 6.672t-7.92 2.544q-5.664 0-9.696-4.032-3.984-4.032-3.984-9.696t3.984-9.744q4.032-4.08 9.648-4.08 5.712 0 9.744 4.176t4.032 9.888zm-3.456-2.064q-0.672-3.888-3.504-6.432t-6.768-2.544q-3.888 0-6.768 2.544-2.832 2.544-3.456 6.432z"/>
  <path d="m584.79 164.45-11.088 26.256h-3.696l-11.088-26.256h3.6l9.264 22.08 9.408-22.08z"/>
  <path d="m614.4 177.85q0 0.192-0.048 0.48 0 0.288 0 0.48h-23.904q0.192 3.84 3.216 6.672 3.072 2.832 6.96 2.832 3.12 0 5.712-1.68 2.64-1.68 3.696-4.512h3.552q-1.44 4.128-4.992 6.672t-7.92 2.544q-5.664 0-9.696-4.032-3.984-4.032-3.984-9.696t3.984-9.744q4.032-4.08 9.648-4.08 5.712 0 9.744 4.176t4.032 9.888zm-3.456-2.064q-0.672-3.888-3.504-6.432t-6.768-2.544q-3.888 0-6.768 2.544-2.832 2.544-3.456 6.432z"/>
  <path d="m630.34 167.33q-3.504 0.288-5.52 2.4-1.968 2.112-1.968 5.616v15.36h-3.36v-26.256h3.36v3.792h0.096q1.008-2.352 2.784-3.312t4.608-1.152z"/>
  <path d="m655.92 164.45-15.216 35.472h-3.504l4.56-10.08-10.224-25.392h3.552l8.352 20.928 8.928-20.928z"/>
  <path d="m686.02 177.56q0 5.664-4.08 9.744-4.032 4.032-9.696 4.032-5.568 0-9.648-4.032-4.032-4.032-4.032-9.552 0-5.712 3.984-9.84t9.696-4.128q5.616 0 9.696 4.08t4.08 9.696zm-3.36-0.144q0-4.32-3.072-7.44-3.024-3.168-7.296-3.168-4.368 0-7.392 3.264-2.976 3.216-2.976 7.632 0 4.32 3.024 7.488 3.024 3.12 7.344 3.12 4.464 0 7.392-3.168 2.976-3.216 2.976-7.728z"/>
  <path d="m714.2 190.71h-3.36v-14.448q0-4.848-2.496-7.2-2.4-2.256-5.712-2.256t-5.712 2.256q-2.448 2.304-2.448 6.96v14.688h-3.36v-26.256h3.36v3.36h0.096q1.248-1.968 3.408-2.976 2.208-1.056 4.656-1.056 5.52 0 8.544 3.456 3.024 3.408 3.024 9.024z"/>
  <path d="m746.5 177.85q0 0.192-0.048 0.48 0 0.288 0 0.48h-23.904q0.192 3.84 3.216 6.672 3.072 2.832 6.96 2.832 3.12 0 5.712-1.68 2.64-1.68 3.696-4.512h3.552q-1.44 4.128-4.992 6.672t-7.92 2.544q-5.664 0-9.696-4.032-3.984-4.032-3.984-9.696t3.984-9.744q4.032-4.08 9.648-4.08 5.712 0 9.744 4.176t4.032 9.888zm-3.456-2.064q-0.672-3.888-3.504-6.432t-6.768-2.544q-3.888 0-6.768 2.544-2.832 2.544-3.456 6.432z"/>
 </g>
 <g fill="#fcca54">
  <path d="m398.17 17.578h-28.497l-16.815 70.092h-0.354l-17.877-70.092h-29.205l-16.461 70.092h-0.354l-16.815-70.092h-35.046l32.391 121.42h32.568l15.753-66.906h0.354l16.815 66.906h31.329z"/>
  <path d="m403.75 139h35.046v-54.339c0-9.027 4.602-13.098 10.266-13.098 7.257 0 8.496 5.133 8.496 11.151v56.286h35.046v-56.64c0-9.204 0-17.877-5.133-25.665-4.956-7.434-14.337-9.912-23.187-9.912-10.62 0-18.762 4.248-25.488 12.39v-41.595h-35.046z"/>
  <path d="m551.28 46.783c-28.32 0-49.737 18.762-49.737 47.79 0 27.435 22.125 46.197 49.737 46.197s49.737-18.762 49.737-46.197c0-29.028-21.417-47.79-49.737-47.79zm0 22.125c12.036 0 12.213 15.753 12.213 24.426 0 24.249-5.841 26.019-12.213 26.019s-12.213-1.77-12.213-26.019c0-8.673 0.177-24.426 12.213-24.426z"/>
 </g>
 <g fill="#f58c40">
  <path d="m646.07 49.553h-35.046v90.447h35.046zm0-32.745h-35.046v24.072h35.046z"/>
  <path d="m654.28 114.34c6.726 20.886 25.311 27.435 45.489 27.435 20.355 0 46.728-7.08 46.728-32.037 0-9.735-4.425-17.7-12.744-23.01-7.08-4.602-16.461-5.664-24.603-6.726-4.248-0.531-11.328-1.062-15.222-2.124-2.832-0.708-5.31-1.77-5.31-4.602 0-2.655 4.956-4.779 11.328-4.779 6.195 0 13.098 1.77 15.753 7.965l26.727-5.133c-6.018-16.992-23.895-23.541-40.887-23.541-10.089 0-20.178 1.416-29.028 6.903-8.496 5.31-13.983 13.452-13.983 23.718 0 24.072 22.479 27.789 41.418 30.444 3.186 0.354 15.222 1.239 15.222 5.841 0 5.31-9.912 5.664-13.452 5.664-7.611 0-17.346-1.062-19.293-9.735z"/>
 </g>
</svg>